<svg width="372" height="443" viewBox="0 0 372 443" fill="none" xmlns="http://www.w3.org/2000/svg">
<g filter="url(#filter0_d_705_507)">
<rect x="16" y="97" width="150" height="150" rx="8" fill="white"/>
</g>
<path d="M55.592 180.832H60.968V184H51.488V167.152H55.592V180.832ZM67.9895 170.44V173.848H73.4855V177.016H67.9895V180.712H74.2055V184H63.8855V167.152H74.2055V170.44H67.9895ZM88.3179 181.024H82.0299L81.0219 184H76.7259L82.8219 167.152H87.5739L93.6699 184H89.3259L88.3179 181.024ZM87.2619 177.856L85.1739 171.688L83.1099 177.856H87.2619ZM105.077 184L101.573 177.64H100.589V184H96.4852V167.152H103.373C104.701 167.152 105.829 167.384 106.757 167.848C107.701 168.312 108.405 168.952 108.869 169.768C109.333 170.568 109.565 171.464 109.565 172.456C109.565 173.576 109.245 174.576 108.605 175.456C107.981 176.336 107.053 176.96 105.821 177.328L109.709 184H105.077ZM100.589 174.736H103.133C103.885 174.736 104.445 174.552 104.813 174.184C105.197 173.816 105.389 173.296 105.389 172.624C105.389 171.984 105.197 171.48 104.813 171.112C104.445 170.744 103.885 170.56 103.133 170.56H100.589V174.736ZM128.173 184H124.069L117.205 173.608V184H113.101V167.152H117.205L124.069 177.592V167.152H128.173V184Z" fill="#4C78BC"/>
<path d="M370 443V60C371.105 60 372 60.8954 372 62V441C372 442.105 371.105 443 370 443Z" fill="#4C78BC"/>
<path d="M192.5 0.5H193.5V61.4146C192.917 61.2087 192.5 60.6531 192.5 60V0.5Z" fill="#4C78BC" stroke="#4C78BC"/>
<path d="M186 0H188V68C186.895 68 186 67.1046 186 66V0Z" fill="#E74436"/>
<path d="M180 0H182V74C180.895 74 180 73.1046 180 72V0Z" fill="#0B9D58"/>
<path d="M174 0H176V80C174.895 80 174 79.1046 174 78V0Z" fill="#F6B819"/>
<path d="M192 60H370C371.105 60 372 60.8954 372 62H194C192.895 62 192 61.1046 192 60Z" fill="#4C78BC"/>
<path d="M186 66H364C365.105 66 366 66.8954 366 68H188C186.895 68 186 67.1046 186 66Z" fill="#E74436"/>
<path d="M358 431V72C359.105 72 360 72.8954 360 74V429C360 430.105 359.105 431 358 431Z" fill="#0B9D58"/>
<path d="M180 72H358C359.105 72 360 72.8954 360 74H182C180.895 74 180 73.1046 180 72Z" fill="#0B9D58"/>
<path d="M352.5 78.5854C353.083 78.7913 353.5 79.3469 353.5 80V255C353.5 255.653 353.083 256.209 352.5 256.415V78.5854Z" stroke="#F6B819"/>
<path d="M174.585 78.5H352C352.653 78.5 353.209 78.9174 353.415 79.5H176C175.347 79.5 174.791 79.0826 174.585 78.5Z" stroke="#F6B819"/>
<path d="M0 441H372C372 442.105 371.105 443 370 443H2C0.895429 443 0 442.105 0 441Z" fill="#4C78BC"/>
<path d="M6 435H366C366 436.105 365.105 437 364 437H8.00001C6.89544 437 6 436.105 6 435Z" fill="#E74436"/>
<path d="M184 429H360C360 430.105 359.105 431 358 431H186C184.895 431 184 430.105 184 429Z" fill="#0B9D58"/>
<path d="M186 255H354C354 256.105 353.105 257 352 257H188C186.895 257 186 256.105 186 255Z" fill="#F6B819"/>
<path d="M2 175L2 443C0.895431 443 0 442.105 0 441L0 177C0 175.895 0.895431 175 2 175Z" fill="#4C78BC"/>
<path d="M8 350L8 437C6.89543 437 6 436.105 6 435L6 352C6 350.895 6.89543 350 8 350Z" fill="#E74436"/>
<path d="M186 350V431C184.895 431 184 430.105 184 429V352C184 350.895 184.895 350 186 350Z" fill="#0B9D58"/>
<path d="M188 175V257C186.895 257 186 256.105 186 255V177C186 175.895 186.895 175 188 175Z" fill="#F6B819"/>
<path d="M0 177C0 175.895 0.895431 175 2 175H15V177H0Z" fill="#4C78BC"/>
<path d="M6 352C6 350.895 6.89543 350 8 350H15V352H6Z" fill="#E74436"/>
<path d="M184 352C184 350.895 184.895 350 186 350H194V352H184Z" fill="#0B9D58"/>
<path d="M186 177C186 175.895 186.895 175 188 175H194V177H186Z" fill="#F6B819"/>
<g filter="url(#filter1_d_705_507)">
<rect x="194" y="97" width="150" height="150" rx="8" fill="white"/>
</g>
<path d="M207.792 175.552C207.792 173.888 208.152 172.408 208.872 171.112C209.592 169.8 210.592 168.784 211.872 168.064C213.168 167.328 214.632 166.96 216.264 166.96C218.264 166.96 219.976 167.488 221.4 168.544C222.824 169.6 223.776 171.04 224.256 172.864H219.744C219.408 172.16 218.928 171.624 218.304 171.256C217.696 170.888 217 170.704 216.216 170.704C214.952 170.704 213.928 171.144 213.144 172.024C212.36 172.904 211.968 174.08 211.968 175.552C211.968 177.024 212.36 178.2 213.144 179.08C213.928 179.96 214.952 180.4 216.216 180.4C217 180.4 217.696 180.216 218.304 179.848C218.928 179.48 219.408 178.944 219.744 178.24H224.256C223.776 180.064 222.824 181.504 221.4 182.56C219.976 183.6 218.264 184.12 216.264 184.12C214.632 184.12 213.168 183.76 211.872 183.04C210.592 182.304 209.592 181.288 208.872 179.992C208.152 178.696 207.792 177.216 207.792 175.552ZM235.697 184.168C234.113 184.168 232.657 183.8 231.329 183.064C230.017 182.328 228.969 181.304 228.185 179.992C227.417 178.664 227.033 177.176 227.033 175.528C227.033 173.88 227.417 172.4 228.185 171.088C228.969 169.776 230.017 168.752 231.329 168.016C232.657 167.28 234.113 166.912 235.697 166.912C237.281 166.912 238.729 167.28 240.041 168.016C241.369 168.752 242.409 169.776 243.161 171.088C243.929 172.4 244.313 173.88 244.313 175.528C244.313 177.176 243.929 178.664 243.161 179.992C242.393 181.304 241.353 182.328 240.041 183.064C238.729 183.8 237.281 184.168 235.697 184.168ZM235.697 180.424C237.041 180.424 238.113 179.976 238.913 179.08C239.729 178.184 240.137 177 240.137 175.528C240.137 174.04 239.729 172.856 238.913 171.976C238.113 171.08 237.041 170.632 235.697 170.632C234.337 170.632 233.249 171.072 232.433 171.952C231.633 172.832 231.233 174.024 231.233 175.528C231.233 177.016 231.633 178.208 232.433 179.104C233.249 179.984 234.337 180.424 235.697 180.424ZM262.628 184H258.524L251.66 173.608V184H247.556V167.152H251.66L258.524 177.592V167.152H262.628V184ZM281.635 184H277.531L270.667 173.608V184H266.563V167.152H270.667L277.531 177.592V167.152H281.635V184ZM289.674 170.44V173.848H295.17V177.016H289.674V180.712H295.89V184H285.57V167.152H295.89V170.44H289.674ZM298.819 175.552C298.819 173.888 299.179 172.408 299.899 171.112C300.619 169.8 301.619 168.784 302.899 168.064C304.195 167.328 305.659 166.96 307.291 166.96C309.291 166.96 311.003 167.488 312.427 168.544C313.851 169.6 314.803 171.04 315.283 172.864H310.771C310.435 172.16 309.955 171.624 309.331 171.256C308.723 170.888 308.027 170.704 307.243 170.704C305.979 170.704 304.955 171.144 304.171 172.024C303.387 172.904 302.995 174.08 302.995 175.552C302.995 177.024 303.387 178.2 304.171 179.08C304.955 179.96 305.979 180.4 307.243 180.4C308.027 180.4 308.723 180.216 309.331 179.848C309.955 179.48 310.435 178.944 310.771 178.24H315.283C314.803 180.064 313.851 181.504 312.427 182.56C311.003 183.6 309.291 184.12 307.291 184.12C305.659 184.12 304.195 183.76 302.899 183.04C301.619 182.304 300.619 181.288 299.899 179.992C299.179 178.696 298.819 177.216 298.819 175.552ZM330.876 167.152V170.44H326.412V184H322.308V170.44H317.844V167.152H330.876Z" fill="#F6B819"/>
<g filter="url(#filter2_d_705_507)">
<rect x="194" y="271" width="150" height="150" rx="8" fill="white"/>
</g>
<path d="M240.672 345.48C240.368 344.92 239.928 344.496 239.352 344.208C238.792 343.904 238.128 343.752 237.36 343.752C236.032 343.752 234.968 344.192 234.168 345.072C233.368 345.936 232.968 347.096 232.968 348.552C232.968 350.104 233.384 351.32 234.216 352.2C235.064 353.064 236.224 353.496 237.696 353.496C238.704 353.496 239.552 353.24 240.24 352.728C240.944 352.216 241.456 351.48 241.776 350.52H236.568V347.496H245.496V351.312C245.192 352.336 244.672 353.288 243.936 354.168C243.216 355.048 242.296 355.76 241.176 356.304C240.056 356.848 238.792 357.12 237.384 357.12C235.72 357.12 234.232 356.76 232.92 356.04C231.624 355.304 230.608 354.288 229.872 352.992C229.152 351.696 228.792 350.216 228.792 348.552C228.792 346.888 229.152 345.408 229.872 344.112C230.608 342.8 231.624 341.784 232.92 341.064C234.216 340.328 235.696 339.96 237.36 339.96C239.376 339.96 241.072 340.448 242.448 341.424C243.84 342.4 244.76 343.752 245.208 345.48H240.672ZM257.321 357L253.817 350.64H252.833V357H248.729V340.152H255.617C256.945 340.152 258.073 340.384 259.001 340.848C259.945 341.312 260.649 341.952 261.113 342.768C261.577 343.568 261.809 344.464 261.809 345.456C261.809 346.576 261.489 347.576 260.849 348.456C260.225 349.336 259.297 349.96 258.065 350.328L261.953 357H257.321ZM252.833 347.736H255.377C256.129 347.736 256.689 347.552 257.057 347.184C257.441 346.816 257.633 346.296 257.633 345.624C257.633 344.984 257.441 344.48 257.057 344.112C256.689 343.744 256.129 343.56 255.377 343.56H252.833V347.736ZM273.313 357.168C271.729 357.168 270.273 356.8 268.945 356.064C267.633 355.328 266.585 354.304 265.801 352.992C265.033 351.664 264.649 350.176 264.649 348.528C264.649 346.88 265.033 345.4 265.801 344.088C266.585 342.776 267.633 341.752 268.945 341.016C270.273 340.28 271.729 339.912 273.313 339.912C274.897 339.912 276.345 340.28 277.657 341.016C278.985 341.752 280.025 342.776 280.777 344.088C281.545 345.4 281.929 346.88 281.929 348.528C281.929 350.176 281.545 351.664 280.777 352.992C280.009 354.304 278.969 355.328 277.657 356.064C276.345 356.8 274.897 357.168 273.313 357.168ZM273.313 353.424C274.657 353.424 275.729 352.976 276.529 352.08C277.345 351.184 277.753 350 277.753 348.528C277.753 347.04 277.345 345.856 276.529 344.976C275.729 344.08 274.657 343.632 273.313 343.632C271.953 343.632 270.865 344.072 270.049 344.952C269.249 345.832 268.849 347.024 268.849 348.528C268.849 350.016 269.249 351.208 270.049 352.104C270.865 352.984 271.953 353.424 273.313 353.424ZM308.357 340.152L303.965 357H298.997L296.309 345.912L293.525 357H288.557L284.285 340.152H288.677L291.101 352.416L294.101 340.152H298.613L301.493 352.416L303.941 340.152H308.357Z" fill="#0B9D58"/>
<g filter="url(#filter3_d_705_507)">
<rect x="16" y="271" width="150" height="150" rx="8" fill="white"/>
</g>
<path d="M30.592 342.152V359H26.488V342.152H30.592ZM49.5981 359H45.4941L38.6301 348.608V359H34.5261V342.152H38.6301L45.4941 352.592V342.152H49.5981V359ZM68.605 359H64.501L57.637 348.608V359H53.533V342.152H57.637L64.501 352.592V342.152H68.605V359ZM80.5079 359.168C78.9239 359.168 77.4679 358.8 76.1399 358.064C74.8279 357.328 73.7799 356.304 72.9959 354.992C72.2279 353.664 71.8439 352.176 71.8439 350.528C71.8439 348.88 72.2279 347.4 72.9959 346.088C73.7799 344.776 74.8279 343.752 76.1399 343.016C77.4679 342.28 78.9239 341.912 80.5079 341.912C82.0919 341.912 83.5399 342.28 84.8519 343.016C86.1799 343.752 87.2199 344.776 87.9719 346.088C88.7399 347.4 89.1239 348.88 89.1239 350.528C89.1239 352.176 88.7399 353.664 87.9719 354.992C87.2039 356.304 86.1639 357.328 84.8519 358.064C83.5399 358.8 82.0919 359.168 80.5079 359.168ZM80.5079 355.424C81.8519 355.424 82.9239 354.976 83.7239 354.08C84.5399 353.184 84.9479 352 84.9479 350.528C84.9479 349.04 84.5399 347.856 83.7239 346.976C82.9239 346.08 81.8519 345.632 80.5079 345.632C79.1479 345.632 78.0599 346.072 77.2439 346.952C76.4439 347.832 76.0439 349.024 76.0439 350.528C76.0439 352.016 76.4439 353.208 77.2439 354.104C78.0599 354.984 79.1479 355.424 80.5079 355.424ZM108.183 342.152L102.207 359H97.0711L91.0951 342.152H95.4631L99.6391 354.872L103.839 342.152H108.183ZM121.346 356.024H115.058L114.05 359H109.754L115.85 342.152H120.602L126.698 359H122.354L121.346 356.024ZM120.29 352.856L118.202 346.688L116.138 352.856H120.29ZM141.634 342.152V345.44H137.17V359H133.066V345.44H128.602V342.152H141.634ZM148.757 345.44V348.848H154.253V352.016H148.757V355.712H154.973V359H144.653V342.152H154.973V345.44H148.757Z" fill="#E74436"/>
<path d="M364 437V66C365.105 66 366 66.8954 366 68V435C366 436.105 365.105 437 364 437Z" fill="#E74436"/>
<defs>
<filter id="filter0_d_705_507" x="12" y="97" width="158" height="158" filterUnits="userSpaceOnUse" color-interpolation-filters="sRGB">
<feFlood flood-opacity="0" result="BackgroundImageFix"/>
<feColorMatrix in="SourceAlpha" type="matrix" values="0 0 0 0 0 0 0 0 0 0 0 0 0 0 0 0 0 0 127 0" result="hardAlpha"/>
<feOffset dy="4"/>
<feGaussianBlur stdDeviation="2"/>
<feComposite in2="hardAlpha" operator="out"/>
<feColorMatrix type="matrix" values="0 0 0 0 0 0 0 0 0 0 0 0 0 0 0 0 0 0 0.25 0"/>
<feBlend mode="normal" in2="BackgroundImageFix" result="effect1_dropShadow_705_507"/>
<feBlend mode="normal" in="SourceGraphic" in2="effect1_dropShadow_705_507" result="shape"/>
</filter>
<filter id="filter1_d_705_507" x="190" y="97" width="158" height="158" filterUnits="userSpaceOnUse" color-interpolation-filters="sRGB">
<feFlood flood-opacity="0" result="BackgroundImageFix"/>
<feColorMatrix in="SourceAlpha" type="matrix" values="0 0 0 0 0 0 0 0 0 0 0 0 0 0 0 0 0 0 127 0" result="hardAlpha"/>
<feOffset dy="4"/>
<feGaussianBlur stdDeviation="2"/>
<feComposite in2="hardAlpha" operator="out"/>
<feColorMatrix type="matrix" values="0 0 0 0 0 0 0 0 0 0 0 0 0 0 0 0 0 0 0.25 0"/>
<feBlend mode="normal" in2="BackgroundImageFix" result="effect1_dropShadow_705_507"/>
<feBlend mode="normal" in="SourceGraphic" in2="effect1_dropShadow_705_507" result="shape"/>
</filter>
<filter id="filter2_d_705_507" x="190" y="271" width="158" height="158" filterUnits="userSpaceOnUse" color-interpolation-filters="sRGB">
<feFlood flood-opacity="0" result="BackgroundImageFix"/>
<feColorMatrix in="SourceAlpha" type="matrix" values="0 0 0 0 0 0 0 0 0 0 0 0 0 0 0 0 0 0 127 0" result="hardAlpha"/>
<feOffset dy="4"/>
<feGaussianBlur stdDeviation="2"/>
<feComposite in2="hardAlpha" operator="out"/>
<feColorMatrix type="matrix" values="0 0 0 0 0 0 0 0 0 0 0 0 0 0 0 0 0 0 0.25 0"/>
<feBlend mode="normal" in2="BackgroundImageFix" result="effect1_dropShadow_705_507"/>
<feBlend mode="normal" in="SourceGraphic" in2="effect1_dropShadow_705_507" result="shape"/>
</filter>
<filter id="filter3_d_705_507" x="12" y="271" width="158" height="158" filterUnits="userSpaceOnUse" color-interpolation-filters="sRGB">
<feFlood flood-opacity="0" result="BackgroundImageFix"/>
<feColorMatrix in="SourceAlpha" type="matrix" values="0 0 0 0 0 0 0 0 0 0 0 0 0 0 0 0 0 0 127 0" result="hardAlpha"/>
<feOffset dy="4"/>
<feGaussianBlur stdDeviation="2"/>
<feComposite in2="hardAlpha" operator="out"/>
<feColorMatrix type="matrix" values="0 0 0 0 0 0 0 0 0 0 0 0 0 0 0 0 0 0 0.25 0"/>
<feBlend mode="normal" in2="BackgroundImageFix" result="effect1_dropShadow_705_507"/>
<feBlend mode="normal" in="SourceGraphic" in2="effect1_dropShadow_705_507" result="shape"/>
</filter>
</defs>
</svg>
