<?xml version="1.0" encoding="UTF-8"?>
<!DOCTYPE svg PUBLIC "-//W3C//DTD SVG 1.1//EN" "http://www.w3.org/Graphics/SVG/1.1/DTD/svg11.dtd">
<svg xmlns="http://www.w3.org/2000/svg" version="1.1" width="600px" height="600px" style="shape-rendering:geometricPrecision; text-rendering:geometricPrecision; image-rendering:optimizeQuality; fill-rule:evenodd; clip-rule:evenodd" xmlns:xlink="http://www.w3.org/1999/xlink">
<g><path style="opacity:0.035" fill="#000000" d="M 280.5,41.5 C 377.87,37.6142 456.036,73.9475 515,150.5C 568.594,230.258 578.594,315.258 545,405.5C 507.517,491.185 443.017,544.185 351.5,564.5C 242.322,581.515 153.822,546.849 86,460.5C 31.0526,378.582 21.7193,291.582 58,199.5C 102.766,105.679 176.932,53.0124 280.5,41.5 Z"/></g>
<g><path style="opacity:0.998" fill="#fcfcfc" d="M 282.5,58.5 C 364.251,55.0058 432.084,83.6724 486,144.5C 538.474,210.858 554.14,285.191 533,367.5C 510.527,439.974 464.694,491.807 395.5,523C 323.654,551.606 253.32,548.273 184.5,513C 97.9716,461.477 56.1383,384.977 59,283.5C 67.3576,196.894 108.858,131.727 183.5,88C 214.631,71.4726 247.631,61.6393 282.5,58.5 Z"/></g>
<g><path style="opacity:1" fill="#ededed" d="M 448.5,128.5 C 447.833,129.167 447.167,129.833 446.5,130.5C 443.911,131.419 441.911,133.086 440.5,135.5C 437.573,136.757 435.239,138.757 433.5,141.5C 430.911,142.419 428.911,144.086 427.5,146.5C 424.573,147.757 422.239,149.757 420.5,152.5C 417.573,153.757 415.239,155.757 413.5,158.5C 410.573,159.757 408.239,161.757 406.5,164.5C 403.911,165.419 401.911,167.086 400.5,169.5C 397.573,170.757 395.239,172.757 393.5,175.5C 390.573,176.757 388.239,178.757 386.5,181.5C 383.573,182.757 381.239,184.757 379.5,187.5C 376.911,188.419 374.911,190.086 373.5,192.5C 370.573,193.757 368.239,195.757 366.5,198.5C 363.573,199.757 361.239,201.757 359.5,204.5C 353.332,207.174 351.166,211.84 353,218.5C 355.905,223.359 360.072,226.359 365.5,227.5C 361.474,231.195 357.474,234.862 353.5,238.5C 295.824,239.163 238.49,238.496 181.5,236.5C 182.877,228.438 182.543,220.438 180.5,212.5C 191.711,216.076 202.377,214.909 212.5,209C 214.833,207.333 217.167,205.667 219.5,204C 235.804,186.695 252.471,169.695 269.5,153C 284.496,144.002 297.496,146.335 308.5,160C 309.167,160.667 309.833,160.667 310.5,160C 317.135,152.364 324.135,145.03 331.5,138C 327.296,133.964 323.296,129.798 319.5,125.5C 323.812,121.854 327.812,117.854 331.5,113.5C 328.085,109.08 324.085,105.414 319.5,102.5C 318.738,100.738 317.404,99.7376 315.5,99.5C 314.198,97.1782 312.198,95.8449 309.5,95.5C 306.461,92.4622 302.794,90.7955 298.5,90.5C 296.723,89.3995 294.723,88.5662 292.5,88C 285.654,87.1794 278.987,87.346 272.5,88.5C 272.167,88.5 271.833,88.5 271.5,88.5C 269.102,88.2594 267.102,88.9261 265.5,90.5C 263.447,90.4021 261.78,91.0687 260.5,92.5C 258.255,93.0956 256.255,94.0956 254.5,95.5C 252.973,95.427 251.973,96.0937 251.5,97.5C 249.596,97.7376 248.262,98.7376 247.5,100.5C 237.254,109.242 227.421,118.575 218,128.5C 217.536,129.094 217.369,129.761 217.5,130.5C 216.5,130.833 215.833,131.5 215.5,132.5C 213.833,133.5 212.5,134.833 211.5,136.5C 205.833,141.5 200.5,146.833 195.5,152.5C 192.331,153.917 189.331,155.583 186.5,157.5C 182.5,157.5 178.5,157.5 174.5,157.5C 172.542,143.076 171.876,128.41 172.5,113.5C 223.231,79.7168 278.898,67.5502 339.5,77C 380.588,84.5486 416.922,101.715 448.5,128.5 Z"/></g>
<g><path style="opacity:1" fill="#e84235" d="M 271.5,88.5 C 271.833,88.5 272.167,88.5 272.5,88.5C 281.268,88.1348 289.935,88.8015 298.5,90.5C 301.979,92.4031 305.646,94.0698 309.5,95.5C 311.147,97.3264 313.147,98.6597 315.5,99.5C 316.262,101.262 317.596,102.262 319.5,102.5C 322.811,106.147 326.145,109.813 329.5,113.5C 325.811,117.52 322.145,121.52 318.5,125.5C 315.854,128.812 312.854,131.812 309.5,134.5C 297.065,120.71 283.065,118.877 267.5,129C 261.631,135.036 255.631,140.87 249.5,146.5C 241.111,139.112 233.444,131.112 226.5,122.5C 233.5,115.167 240.5,107.833 247.5,100.5C 249.404,100.262 250.738,99.2624 251.5,97.5C 253.027,97.573 254.027,96.9063 254.5,95.5C 256.255,94.0956 258.255,93.0956 260.5,92.5C 262.698,92.8799 264.365,92.2132 265.5,90.5C 267.786,90.405 269.786,89.7384 271.5,88.5 Z"/></g>
<g><path style="opacity:1" fill="#4d3535" d="M 272.5,88.5 C 278.987,87.346 285.654,87.1794 292.5,88C 294.723,88.5662 296.723,89.3995 298.5,90.5C 289.935,88.8015 281.268,88.1348 272.5,88.5 Z"/></g>
<g><path style="opacity:1" fill="#443e40" d="M 271.5,88.5 C 269.786,89.7384 267.786,90.405 265.5,90.5C 267.102,88.9261 269.102,88.2594 271.5,88.5 Z"/></g>
<g><path style="opacity:1" fill="#7a3931" d="M 265.5,90.5 C 264.365,92.2132 262.698,92.8799 260.5,92.5C 261.78,91.0687 263.447,90.4021 265.5,90.5 Z"/></g>
<g><path style="opacity:1" fill="#5f4e4e" d="M 298.5,90.5 C 302.794,90.7955 306.461,92.4622 309.5,95.5C 305.646,94.0698 301.979,92.4031 298.5,90.5 Z"/></g>
<g><path style="opacity:1" fill="#533c3c" d="M 309.5,95.5 C 312.198,95.8449 314.198,97.1782 315.5,99.5C 313.147,98.6597 311.147,97.3264 309.5,95.5 Z"/></g>
<g><path style="opacity:1" fill="#4b3231" d="M 254.5,95.5 C 254.027,96.9063 253.027,97.573 251.5,97.5C 251.973,96.0937 252.973,95.427 254.5,95.5 Z"/></g>
<g><path style="opacity:1" fill="#523331" d="M 251.5,97.5 C 250.738,99.2624 249.404,100.262 247.5,100.5C 248.262,98.7376 249.596,97.7376 251.5,97.5 Z"/></g>
<g><path style="opacity:1" fill="#503e3e" d="M 315.5,99.5 C 317.404,99.7376 318.738,100.738 319.5,102.5C 317.596,102.262 316.262,101.262 315.5,99.5 Z"/></g>
<g><path style="opacity:1" fill="#7e7e80" d="M 172.5,113.5 C 171.876,128.41 172.542,143.076 174.5,157.5C 170.728,157.116 167.728,155.45 165.5,152.5C 167.044,152.703 168.378,153.37 169.5,154.5C 170.499,141.517 170.832,128.517 170.5,115.5C 170.833,114.5 171.5,113.833 172.5,113.5 Z"/></g>
<g><path style="opacity:1" fill="#603836" d="M 247.5,100.5 C 240.5,107.833 233.5,115.167 226.5,122.5C 223.833,124.5 221.5,126.833 219.5,129.5C 218.833,129.833 218.167,130.167 217.5,130.5C 217.369,129.761 217.536,129.094 218,128.5C 227.421,118.575 237.254,109.242 247.5,100.5 Z"/></g>
<g><path style="opacity:1" fill="#ededed" d="M 170.5,115.5 C 170.832,128.517 170.499,141.517 169.5,154.5C 168.378,153.37 167.044,152.703 165.5,152.5C 165.217,151.711 164.717,151.044 164,150.5C 157,157.5 150,164.5 143,171.5C 142.874,175.235 144.374,178.235 147.5,180.5C 147.647,183.443 148.313,186.276 149.5,189C 147.218,192.286 144.551,195.286 141.5,198C 143.019,199.351 144.352,200.851 145.5,202.5C 144.37,203.622 143.703,204.956 143.5,206.5C 135.111,213.888 127.444,221.888 120.5,230.5C 118.833,231.5 117.5,232.833 116.5,234.5C 114.037,236.461 111.703,238.628 109.5,241C 104.326,242.751 99.659,245.251 95.5,248.5C 93.9731,248.427 92.9731,249.094 92.5,250.5C 89.9108,251.419 87.9108,253.086 86.5,255.5C 84.2901,255.894 82.9568,257.227 82.5,259.5C 80.8333,260.833 79.1667,262.167 77.5,263.5C 88.3074,201.165 119.307,151.832 170.5,115.5 Z"/></g>
<g><path style="opacity:1" fill="#564444" d="M 319.5,102.5 C 324.085,105.414 328.085,109.08 331.5,113.5C 327.812,117.854 323.812,121.854 319.5,125.5C 319.167,125.5 318.833,125.5 318.5,125.5C 322.145,121.52 325.811,117.52 329.5,113.5C 326.145,109.813 322.811,106.147 319.5,102.5 Z"/></g>
<g><path style="opacity:1" fill="#212225" d="M 318.5,125.5 C 318.833,125.5 319.167,125.5 319.5,125.5C 323.296,129.798 327.296,133.964 331.5,138C 324.135,145.03 317.135,152.364 310.5,160C 309.833,160.667 309.167,160.667 308.5,160C 297.496,146.335 284.496,144.002 269.5,153C 252.471,169.695 235.804,186.695 219.5,204C 217.167,205.667 214.833,207.333 212.5,209C 202.377,214.909 191.711,216.076 180.5,212.5C 181.636,207.015 181.636,201.681 180.5,196.5C 179.939,193.538 178.939,190.705 177.5,188C 177.613,186.72 178.28,185.887 179.5,185.5C 184.65,188.855 190.317,190.188 196.5,189.5C 200.092,189.302 203.426,188.302 206.5,186.5C 210.683,184.913 214.35,182.579 217.5,179.5C 220.167,177.5 222.5,175.167 224.5,172.5C 227.5,170.167 230.167,167.5 232.5,164.5C 235.167,162.5 237.5,160.167 239.5,157.5C 241.167,156.5 242.5,155.167 243.5,153.5C 245.5,151.167 247.5,148.833 249.5,146.5C 255.631,140.87 261.631,135.036 267.5,129C 283.065,118.877 297.065,120.71 309.5,134.5C 312.854,131.812 315.854,128.812 318.5,125.5 Z"/></g>
<g><path style="opacity:1" fill="#de494d" d="M 226.5,122.5 C 233.444,131.112 241.111,139.112 249.5,146.5C 247.5,148.833 245.5,151.167 243.5,153.5C 234.479,146.479 226.479,138.479 219.5,129.5C 221.5,126.833 223.833,124.5 226.5,122.5 Z"/></g>
<g><path style="opacity:1" fill="#636466" d="M 448.5,128.5 C 458.433,128.432 463.433,133.432 463.5,143.5C 464.244,147.119 464.577,150.785 464.5,154.5C 462.873,147.564 461.039,140.564 459,133.5C 455.334,130.105 451.167,129.105 446.5,130.5C 447.167,129.833 447.833,129.167 448.5,128.5 Z"/></g>
<g><path style="opacity:1" fill="#ededed" d="M 464.5,154.5 C 468.853,182.618 473.853,210.618 479.5,238.5C 478.833,238.5 478.167,238.5 477.5,238.5C 451.498,238.667 425.498,238.5 399.5,238C 388.514,234.061 377.514,230.227 366.5,226.5C 364.142,224.871 361.476,223.705 358.5,223C 351.712,216.527 352.046,210.361 359.5,204.5C 362.427,203.243 364.761,201.243 366.5,198.5C 369.427,197.243 371.761,195.243 373.5,192.5C 376.089,191.581 378.089,189.914 379.5,187.5C 382.427,186.243 384.761,184.243 386.5,181.5C 389.427,180.243 391.761,178.243 393.5,175.5C 396.427,174.243 398.761,172.243 400.5,169.5C 403.089,168.581 405.089,166.914 406.5,164.5C 409.427,163.243 411.761,161.243 413.5,158.5C 416.427,157.243 418.761,155.243 420.5,152.5C 423.427,151.243 425.761,149.243 427.5,146.5C 430.089,145.581 432.089,143.914 433.5,141.5C 436.427,140.243 438.761,138.243 440.5,135.5C 443.089,134.581 445.089,132.914 446.5,130.5C 451.167,129.105 455.334,130.105 459,133.5C 461.039,140.564 462.873,147.564 464.5,154.5 Z"/></g>
<g><path style="opacity:1" fill="#d24c5d" d="M 219.5,129.5 C 226.479,138.479 234.479,146.479 243.5,153.5C 242.5,155.167 241.167,156.5 239.5,157.5C 231.057,150.229 222.724,142.729 214.5,135C 215.252,134.329 215.586,133.496 215.5,132.5C 215.833,131.5 216.5,130.833 217.5,130.5C 218.167,130.167 218.833,129.833 219.5,129.5 Z"/></g>
<g><path style="opacity:1" fill="#5f5f62" d="M 446.5,130.5 C 445.089,132.914 443.089,134.581 440.5,135.5C 441.911,133.086 443.911,131.419 446.5,130.5 Z"/></g>
<g><path style="opacity:1" fill="#5c5c5f" d="M 440.5,135.5 C 438.761,138.243 436.427,140.243 433.5,141.5C 435.239,138.757 437.573,136.757 440.5,135.5 Z"/></g>
<g><path style="opacity:1" fill="#ededed" d="M 463.5,143.5 C 496.522,177.544 516.855,218.21 524.5,265.5C 521.452,261.785 518.119,258.452 514.5,255.5C 509.312,249.737 502.979,245.737 495.5,243.5C 490.977,240.784 485.977,239.451 480.5,239.5C 476.119,210.862 470.785,182.529 464.5,154.5C 464.577,150.785 464.244,147.119 463.5,143.5 Z"/></g>
<g><path style="opacity:1" fill="#c55680" d="M 207.5,142.5 C 215.833,149.833 224.167,157.167 232.5,164.5C 230.167,167.5 227.5,170.167 224.5,172.5C 216.526,164.861 208.526,157.194 200.5,149.5C 202.5,146.833 204.833,144.5 207.5,142.5 Z"/></g>
<g><path style="opacity:1" fill="#59595c" d="M 433.5,141.5 C 432.089,143.914 430.089,145.581 427.5,146.5C 428.911,144.086 430.911,142.419 433.5,141.5 Z"/></g>
<g><path style="opacity:1" fill="#583a47" d="M 211.5,136.5 C 210.585,138.754 209.252,140.754 207.5,142.5C 204.833,144.5 202.5,146.833 200.5,149.5C 199.078,150.925 197.411,151.925 195.5,152.5C 200.5,146.833 205.833,141.5 211.5,136.5 Z"/></g>
<g><path style="opacity:1" fill="#cc506b" d="M 215.5,132.5 C 215.586,133.496 215.252,134.329 214.5,135C 222.724,142.729 231.057,150.229 239.5,157.5C 237.5,160.167 235.167,162.5 232.5,164.5C 224.167,157.167 215.833,149.833 207.5,142.5C 209.252,140.754 210.585,138.754 211.5,136.5C 212.5,134.833 213.833,133.5 215.5,132.5 Z"/></g>
<g><path style="opacity:1" fill="#5f5f62" d="M 427.5,146.5 C 425.761,149.243 423.427,151.243 420.5,152.5C 422.239,149.757 424.573,147.757 427.5,146.5 Z"/></g>
<g><path style="opacity:1" fill="#bb5b95" d="M 200.5,149.5 C 208.526,157.194 216.526,164.861 224.5,172.5C 222.5,175.167 220.167,177.5 217.5,179.5C 209.908,171.242 201.908,163.242 193.5,155.5C 194.167,154.5 194.833,153.5 195.5,152.5C 197.411,151.925 199.078,150.925 200.5,149.5 Z"/></g>
<g><path style="opacity:1" fill="#5a5b5d" d="M 420.5,152.5 C 418.761,155.243 416.427,157.243 413.5,158.5C 415.239,155.757 417.573,153.757 420.5,152.5 Z"/></g>
<g><path style="opacity:1" fill="#4d3d4c" d="M 195.5,152.5 C 194.833,153.5 194.167,154.5 193.5,155.5C 191.254,156.455 188.921,157.122 186.5,157.5C 189.331,155.583 192.331,153.917 195.5,152.5 Z"/></g>
<g><path style="opacity:1" fill="#a865bd" d="M 165.5,152.5 C 167.728,155.45 170.728,157.116 174.5,157.5C 176.389,158.322 178.389,159.155 180.5,160C 189.369,168.702 198.036,177.535 206.5,186.5C 203.426,188.302 200.092,189.302 196.5,189.5C 185.468,177.468 173.802,166.134 161.5,155.5C 162.262,153.738 163.596,152.738 165.5,152.5 Z"/></g>
<g><path style="opacity:1" fill="#ae5fa6" d="M 193.5,155.5 C 201.908,163.242 209.908,171.242 217.5,179.5C 214.35,182.579 210.683,184.913 206.5,186.5C 198.036,177.535 189.369,168.702 180.5,160C 178.389,159.155 176.389,158.322 174.5,157.5C 178.5,157.5 182.5,157.5 186.5,157.5C 188.921,157.122 191.254,156.455 193.5,155.5 Z"/></g>
<g><path style="opacity:1" fill="#4a4056" d="M 165.5,152.5 C 163.596,152.738 162.262,153.738 161.5,155.5C 156.833,159.5 152.5,163.833 148.5,168.5C 146.521,169.812 144.855,171.479 143.5,173.5C 145.616,175.4 146.949,177.733 147.5,180.5C 144.374,178.235 142.874,175.235 143,171.5C 150,164.5 157,157.5 164,150.5C 164.717,151.044 165.217,151.711 165.5,152.5 Z"/></g>
<g><path style="opacity:1" fill="#9b6cd3" d="M 161.5,155.5 C 173.802,166.134 185.468,177.468 196.5,189.5C 190.317,190.188 184.65,188.855 179.5,185.5C 178.28,185.887 177.613,186.72 177.5,188C 178.939,190.705 179.939,193.538 180.5,196.5C 180.631,197.239 180.464,197.906 180,198.5C 169.328,188.661 158.828,178.661 148.5,168.5C 152.5,163.833 156.833,159.5 161.5,155.5 Z"/></g>
<g><path style="opacity:1" fill="#5d5e60" d="M 413.5,158.5 C 411.761,161.243 409.427,163.243 406.5,164.5C 408.239,161.757 410.573,159.757 413.5,158.5 Z"/></g>
<g><path style="opacity:1" fill="#5c5d5f" d="M 406.5,164.5 C 405.089,166.914 403.089,168.581 400.5,169.5C 401.911,167.086 403.911,165.419 406.5,164.5 Z"/></g>
<g><path style="opacity:1" fill="#5e5f61" d="M 400.5,169.5 C 398.761,172.243 396.427,174.243 393.5,175.5C 395.239,172.757 397.573,170.757 400.5,169.5 Z"/></g>
<g><path style="opacity:1" fill="#5c5c5e" d="M 393.5,175.5 C 391.761,178.243 389.427,180.243 386.5,181.5C 388.239,178.757 390.573,176.757 393.5,175.5 Z"/></g>
<g><path style="opacity:1" fill="#5d5d60" d="M 386.5,181.5 C 384.761,184.243 382.427,186.243 379.5,187.5C 381.239,184.757 383.573,182.757 386.5,181.5 Z"/></g>
<g><path style="opacity:1" fill="#8d70d9" d="M 148.5,168.5 C 158.828,178.661 169.328,188.661 180,198.5C 180.464,197.906 180.631,197.239 180.5,196.5C 181.636,201.681 181.636,207.015 180.5,212.5C 179.687,214.261 178.687,215.928 177.5,217.5C 168.199,209.534 159.199,201.201 150.5,192.5C 150.966,188.018 149.966,184.018 147.5,180.5C 146.949,177.733 145.616,175.4 143.5,173.5C 144.855,171.479 146.521,169.812 148.5,168.5 Z"/></g>
<g><path style="opacity:1" fill="#302f38" d="M 147.5,180.5 C 149.966,184.018 150.966,188.018 150.5,192.5C 149.733,198.033 147.4,202.7 143.5,206.5C 143.703,204.956 144.37,203.622 145.5,202.5C 144.352,200.851 143.019,199.351 141.5,198C 144.551,195.286 147.218,192.286 149.5,189C 148.313,186.276 147.647,183.443 147.5,180.5 Z"/></g>
<g><path style="opacity:1" fill="#5c5d5f" d="M 379.5,187.5 C 378.089,189.914 376.089,191.581 373.5,192.5C 374.911,190.086 376.911,188.419 379.5,187.5 Z"/></g>
<g><path style="opacity:1" fill="#5b5b5d" d="M 373.5,192.5 C 371.761,195.243 369.427,197.243 366.5,198.5C 368.239,195.757 370.573,193.757 373.5,192.5 Z"/></g>
<g><path style="opacity:1" fill="#5c5c5f" d="M 366.5,198.5 C 364.761,201.243 362.427,203.243 359.5,204.5C 361.239,201.757 363.573,199.757 366.5,198.5 Z"/></g>
<g><path style="opacity:1" fill="#8173dc" d="M 150.5,192.5 C 159.199,201.201 168.199,209.534 177.5,217.5C 174.985,223.348 171.318,228.348 166.5,232.5C 166.631,231.761 166.464,231.094 166,230.5C 157.995,223.662 150.495,216.329 143.5,208.5C 143.5,207.833 143.5,207.167 143.5,206.5C 147.4,202.7 149.733,198.033 150.5,192.5 Z"/></g>
<g><path style="opacity:1" fill="#666769" d="M 464.5,154.5 C 470.785,182.529 476.119,210.862 480.5,239.5C 485.977,239.451 490.977,240.784 495.5,243.5C 490.233,242.184 484.9,241.184 479.5,240.5C 479.5,239.833 479.5,239.167 479.5,238.5C 473.853,210.618 468.853,182.618 464.5,154.5 Z"/></g>
<g><path style="opacity:1" fill="#7277e2" d="M 143.5,208.5 C 150.495,216.329 157.995,223.662 166,230.5C 166.464,231.094 166.631,231.761 166.5,232.5C 165.04,234.463 163.373,236.296 161.5,238C 147.661,238.169 133.994,238.669 120.5,239.5C 120.167,239.5 119.833,239.5 119.5,239.5C 117.085,239.627 114.751,239.793 112.5,240C 114.464,238.549 115.797,236.716 116.5,234.5C 117.5,232.833 118.833,231.5 120.5,230.5C 128.167,223.167 135.833,215.833 143.5,208.5 Z"/></g>
<g><path style="opacity:1" fill="#24252c" d="M 180.5,212.5 C 182.543,220.438 182.877,228.438 181.5,236.5C 180.596,237.209 180.263,238.209 180.5,239.5C 160.5,239.5 140.5,239.5 120.5,239.5C 133.994,238.669 147.661,238.169 161.5,238C 163.373,236.296 165.04,234.463 166.5,232.5C 171.318,228.348 174.985,223.348 177.5,217.5C 178.687,215.928 179.687,214.261 180.5,212.5 Z"/></g>
<g><path style="opacity:1" fill="#58595b" d="M 359.5,204.5 C 352.046,210.361 351.712,216.527 358.5,223C 361.476,223.705 364.142,224.871 366.5,226.5C 366.5,227.167 366.167,227.5 365.5,227.5C 360.072,226.359 355.905,223.359 353,218.5C 351.166,211.84 353.332,207.174 359.5,204.5 Z"/></g>
<g><path style="opacity:1" fill="#414257" d="M 143.5,206.5 C 143.5,207.167 143.5,207.833 143.5,208.5C 135.833,215.833 128.167,223.167 120.5,230.5C 127.444,221.888 135.111,213.888 143.5,206.5 Z"/></g>
<g><path style="opacity:1" fill="#292a2d" d="M 366.5,226.5 C 377.514,230.227 388.514,234.061 399.5,238C 425.498,238.5 451.498,238.667 477.5,238.5C 436.337,239.499 395.003,239.832 353.5,239.5C 353.5,239.167 353.5,238.833 353.5,238.5C 357.474,234.862 361.474,231.195 365.5,227.5C 366.167,227.5 366.5,227.167 366.5,226.5 Z"/></g>
<g><path style="opacity:1" fill="#545457" d="M 181.5,236.5 C 238.49,238.496 295.824,239.163 353.5,238.5C 353.5,238.833 353.5,239.167 353.5,239.5C 295.833,239.5 238.167,239.5 180.5,239.5C 180.263,238.209 180.596,237.209 181.5,236.5 Z"/></g>
<g><path style="opacity:1" fill="#b9b9ba" d="M 477.5,238.5 C 478.167,238.5 478.833,238.5 479.5,238.5C 479.5,239.167 479.5,239.833 479.5,240.5C 359.5,240.5 239.5,240.5 119.5,240.5C 119.5,240.167 119.5,239.833 119.5,239.5C 119.833,239.5 120.167,239.5 120.5,239.5C 140.5,239.5 160.5,239.5 180.5,239.5C 238.167,239.5 295.833,239.5 353.5,239.5C 395.003,239.832 436.337,239.499 477.5,238.5 Z"/></g>
<g><path style="opacity:1" fill="#ececec" d="M 119.5,240.5 C 239.5,240.5 359.5,240.5 479.5,240.5C 484.9,241.184 490.233,242.184 495.5,243.5C 501.994,247.247 508.327,251.247 514.5,255.5C 517.463,259.798 520.797,263.798 524.5,267.5C 528.417,275.082 531.25,283.082 533,291.5C 533.464,290.906 533.631,290.239 533.5,289.5C 534.404,290.209 534.737,291.209 534.5,292.5C 535.528,324.298 521.528,346.465 492.5,359C 488.535,360.126 484.535,361.126 480.5,362C 360.5,362.667 240.5,362.667 120.5,362C 92.2254,356.89 74.892,340.39 68.5,312.5C 66.3788,299.464 67.7121,286.797 72.5,274.5C 73.6737,273.486 74.3404,272.153 74.5,270.5C 77.4086,267.019 80.0753,263.352 82.5,259.5C 84.2644,258.674 85.5977,257.341 86.5,255.5C 89.0892,254.581 91.0892,252.914 92.5,250.5C 94.0269,250.573 95.0269,249.906 95.5,248.5C 103.04,244.431 111.04,241.764 119.5,240.5 Z"/></g>
<g><path style="opacity:1" fill="#4c4d57" d="M 116.5,234.5 C 115.797,236.716 114.464,238.549 112.5,240C 114.751,239.793 117.085,239.627 119.5,239.5C 119.5,239.833 119.5,240.167 119.5,240.5C 111.04,241.764 103.04,244.431 95.5,248.5C 99.659,245.251 104.326,242.751 109.5,241C 111.703,238.628 114.037,236.461 116.5,234.5 Z"/></g>
<g><path style="opacity:1" fill="#48494b" d="M 95.5,248.5 C 95.0269,249.906 94.0269,250.573 92.5,250.5C 92.9731,249.094 93.9731,248.427 95.5,248.5 Z"/></g>
<g><path style="opacity:1" fill="#545457" d="M 495.5,243.5 C 502.979,245.737 509.312,249.737 514.5,255.5C 508.327,251.247 501.994,247.247 495.5,243.5 Z"/></g>
<g><path style="opacity:1" fill="#69696b" d="M 92.5,250.5 C 91.0892,252.914 89.0892,254.581 86.5,255.5C 87.9108,253.086 89.9108,251.419 92.5,250.5 Z"/></g>
<g><path style="opacity:1" fill="#4f5053" d="M 86.5,255.5 C 85.5977,257.341 84.2644,258.674 82.5,259.5C 82.9568,257.227 84.2901,255.894 86.5,255.5 Z"/></g>
<g><path style="opacity:1" fill="#5b5c5e" d="M 514.5,255.5 C 518.119,258.452 521.452,261.785 524.5,265.5C 524.5,266.167 524.5,266.833 524.5,267.5C 520.797,263.798 517.463,259.798 514.5,255.5 Z"/></g>
<g><path style="opacity:1" fill="#555658" d="M 82.5,259.5 C 80.0753,263.352 77.4086,267.019 74.5,270.5C 75.242,268.02 76.242,265.687 77.5,263.5C 79.1667,262.167 80.8333,260.833 82.5,259.5 Z"/></g>
<g><path style="opacity:1" fill="#4c4c4f" d="M 74.5,270.5 C 74.3404,272.153 73.6737,273.486 72.5,274.5C 72.2291,272.62 72.8958,271.287 74.5,270.5 Z"/></g>
<g><path style="opacity:1" fill="#5a5a5d" d="M 524.5,267.5 C 529.433,273.947 532.433,281.28 533.5,289.5C 533.631,290.239 533.464,290.906 533,291.5C 531.25,283.082 528.417,275.082 524.5,267.5 Z"/></g>
<g><path style="opacity:1" fill="#2d2e31" d="M 313.5,279.5 C 314.833,279.5 316.167,279.5 317.5,279.5C 314.695,295.886 311.028,312.053 306.5,328C 305.552,328.483 304.552,328.649 303.5,328.5C 306.358,312.068 309.691,295.735 313.5,279.5 Z"/></g>
<g><path style="opacity:1" fill="#26272a" d="M 114.5,282.5 C 121.889,281.371 128.222,283.371 133.5,288.5C 132.5,290.167 131.167,291.5 129.5,292.5C 118.733,285.63 110.566,287.964 105,299.5C 103.853,313.02 110.02,319.187 123.5,318C 129.216,316.787 132.216,313.287 132.5,307.5C 128.167,307.5 123.833,307.5 119.5,307.5C 119.5,305.5 119.5,303.5 119.5,301.5C 125.833,301.5 132.167,301.5 138.5,301.5C 138.365,320.418 129.031,327.584 110.5,323C 98.3263,315.132 95.4929,304.632 102,291.5C 105.651,287.609 109.818,284.609 114.5,282.5 Z"/></g>
<g><path style="opacity:1" fill="#222326" d="M 331.5,283.5 C 349.531,282.365 358.031,290.698 357,308.5C 353.13,321.002 344.63,326.168 331.5,324C 317.154,317.294 313.321,306.794 320,292.5C 323.161,288.491 326.994,285.491 331.5,283.5 Z"/></g>
<g><path style="opacity:1" fill="#222326" d="M 383.5,283.5 C 418.168,283.333 452.835,283.5 487.5,284C 503.375,291.205 506.875,302.371 498,317.5C 494.919,320.293 491.419,322.46 487.5,324C 452.833,324.667 418.167,324.667 383.5,324C 370.294,318.751 365.794,309.251 370,295.5C 372.85,289.514 377.35,285.514 383.5,283.5 Z"/></g>
<g><path style="opacity:1" fill="#1f2123" d="M 229.5,284.5 C 231.5,284.5 233.5,284.5 235.5,284.5C 235.5,297.5 235.5,310.5 235.5,323.5C 233.5,323.5 231.5,323.5 229.5,323.5C 229.5,310.5 229.5,297.5 229.5,284.5 Z"/></g>
<g><path style="opacity:1" fill="#a6a7a8" d="M 300.5,284.5 C 293.833,284.5 287.167,284.5 280.5,284.5C 280.5,297.5 280.5,310.5 280.5,323.5C 287.167,323.5 293.833,323.5 300.5,323.5C 293.687,324.491 286.687,324.825 279.5,324.5C 279.5,310.833 279.5,297.167 279.5,283.5C 286.687,283.175 293.687,283.509 300.5,284.5 Z"/></g>
<g><path style="opacity:1" fill="#1f2123" d="M 300.5,284.5 C 300.5,297.5 300.5,310.5 300.5,323.5C 293.833,323.5 287.167,323.5 280.5,323.5C 280.5,310.5 280.5,297.5 280.5,284.5C 287.167,284.5 293.833,284.5 300.5,284.5 Z"/></g>
<g><path style="opacity:1" fill="#eaeaeb" d="M 384.5,294.5 C 388.167,294.5 391.833,294.5 395.5,294.5C 395.5,295.5 395.5,296.5 395.5,297.5C 392.833,297.5 390.167,297.5 387.5,297.5C 387.5,299.167 387.5,300.833 387.5,302.5C 389.833,302.5 392.167,302.5 394.5,302.5C 394.5,303.5 394.5,304.5 394.5,305.5C 392.167,305.5 389.833,305.5 387.5,305.5C 387.5,307.167 387.5,308.833 387.5,310.5C 390.247,310.187 392.914,310.52 395.5,311.5C 391.893,312.489 388.226,312.823 384.5,312.5C 384.5,306.5 384.5,300.5 384.5,294.5 Z"/></g>
<g><path style="opacity:1" fill="#e3e3e3" d="M 455.5,294.5 C 456.5,294.5 457.5,294.5 458.5,294.5C 458.5,300.5 458.5,306.5 458.5,312.5C 448.9,315.638 444.734,312.305 446,302.5C 448.264,299.48 451.097,298.813 454.5,300.5C 455.466,298.604 455.799,296.604 455.5,294.5 Z"/></g>
<g><path style="opacity:1" fill="#525356" d="M 72.5,274.5 C 67.7121,286.797 66.3788,299.464 68.5,312.5C 67.8333,312.167 67.1667,311.833 66.5,311.5C 66.3337,304.159 66.5003,296.826 67,289.5C 67.773,284.005 69.6063,279.005 72.5,274.5 Z"/></g>
<g><path style="opacity:1" fill="#ececec" d="M 411.5,311.5 C 412.029,307.649 411.362,304.149 409.5,301C 410.056,300.617 410.389,300.117 410.5,299.5C 410.5,298.5 410.5,297.5 410.5,296.5C 411.5,296.5 412.5,296.5 413.5,296.5C 413.5,297.833 413.5,299.167 413.5,300.5C 417.5,301.167 417.5,301.833 413.5,302.5C 413.5,305.167 413.5,307.833 413.5,310.5C 414.5,310.5 415.5,310.5 416.5,310.5C 416.5,311.5 416.5,312.5 416.5,313.5C 414.302,313.88 412.635,313.213 411.5,311.5 Z"/></g>
<g><path style="opacity:1" fill="#27282b" d="M 149.5,297.5 C 163.2,296.697 169.033,303.03 167,316.5C 160.928,325.113 153.428,326.613 144.5,321C 138.069,311.413 139.736,303.58 149.5,297.5 Z"/></g>
<g><path style="opacity:1" fill="#26272a" d="M 179.5,297.5 C 193.347,297.5 198.847,304.167 196,317.5C 191.748,323.588 185.915,325.754 178.5,324C 171.33,319.841 168.83,313.674 171,305.5C 173.074,301.923 175.907,299.256 179.5,297.5 Z"/></g>
<g><path style="opacity:1" fill="#26272a" d="M 208.5,297.5 C 212.054,297.15 215.388,297.816 218.5,299.5C 220.747,298.626 223.08,298.292 225.5,298.5C 225.929,309.245 225.429,319.912 224,330.5C 219.833,335.889 214.333,337.723 207.5,336C 204.5,334.333 202.167,332 200.5,329C 203.796,325.632 206.463,325.966 208.5,330C 215.612,332.554 219.112,330.054 219,322.5C 205.2,326.38 198.866,321.047 200,306.5C 201.688,302.315 204.521,299.315 208.5,297.5 Z"/></g>
<g><path style="opacity:1" fill="#262629" d="M 246.5,297.5 C 255.478,296.295 260.811,299.962 262.5,308.5C 256.618,310.24 250.951,312.574 245.5,315.5C 246.813,317.826 248.813,319.159 251.5,319.5C 254.371,318.374 257.038,317.207 259.5,316C 260.5,316.833 261.5,317.667 262.5,318.5C 257.727,324.504 251.727,326.004 244.5,323C 238.471,317.616 236.971,311.116 240,303.5C 242.063,301.266 244.229,299.266 246.5,297.5 Z"/></g>
<g><path style="opacity:1" fill="#d8d8d8" d="M 421.5,299.5 C 427.639,298.726 430.639,301.392 430.5,307.5C 427.102,307.18 423.768,307.513 420.5,308.5C 422.915,311.128 425.415,311.128 428,308.5C 430.021,310.651 429.521,312.151 426.5,313C 418.45,312.933 415.95,309.099 419,301.5C 419.995,300.934 420.828,300.267 421.5,299.5 Z"/></g>
<g><path style="opacity:1" fill="#eeeeef" d="M 432.5,312.5 C 431.911,308.029 432.577,304.029 434.5,300.5C 434.435,300.938 434.601,301.272 435,301.5C 437.667,298.833 440.333,298.833 443,301.5C 443.499,305.152 443.665,308.818 443.5,312.5C 442.5,312.5 441.5,312.5 440.5,312.5C 440.5,309.167 440.5,305.833 440.5,302.5C 438.533,302.261 436.699,302.594 435,303.5C 435.07,306.992 434.237,309.992 432.5,312.5 Z"/></g>
<g><path style="opacity:1" fill="#dddddd" d="M 463.5,299.5 C 469.675,298.677 472.675,301.344 472.5,307.5C 469.428,307.183 466.428,307.516 463.5,308.5C 464.171,309.946 465.338,310.612 467,310.5C 472.499,308.599 473.332,309.432 469.5,313C 461.614,313.771 458.781,310.271 461,302.5C 462.045,301.627 462.878,300.627 463.5,299.5 Z"/></g>
<g><path style="opacity:1" fill="#e1e1e2" d="M 483.5,294.5 C 484.5,294.5 485.5,294.5 486.5,294.5C 486.829,300.537 486.496,306.537 485.5,312.5C 484.914,312.291 484.414,311.957 484,311.5C 478.18,314.746 474.68,312.913 473.5,306C 474.796,300.673 477.963,298.839 483,300.5C 483.495,298.527 483.662,296.527 483.5,294.5 Z"/></g>
<g><path style="opacity:1" fill="#e3e4e4" d="M 404.5,300.5 C 405.5,300.5 406.5,300.5 407.5,300.5C 406.741,302.436 405.741,304.269 404.5,306C 405.112,308.058 406.112,309.891 407.5,311.5C 407,311.833 406.5,312.167 406,312.5C 404.832,311.491 403.665,310.491 402.5,309.5C 401.369,310.751 400.036,311.751 398.5,312.5C 397.833,312.333 397.167,312.167 396.5,312C 397.956,310.255 399.289,308.422 400.5,306.5C 399.559,304.228 398.226,302.228 396.5,300.5C 399.242,299.5 401.242,300.5 402.5,303.5C 403.425,302.643 404.092,301.643 404.5,300.5 Z"/></g>
<g><path style="opacity:1" fill="#8c8c8e" d="M 434.5,300.5 C 432.577,304.029 431.911,308.029 432.5,312.5C 431.515,308.366 431.182,304.032 431.5,299.5C 432.791,299.263 433.791,299.596 434.5,300.5 Z"/></g>
<g><path style="opacity:1" fill="#959597" d="M 404.5,300.5 C 406.265,299.539 408.265,299.205 410.5,299.5C 410.389,300.117 410.056,300.617 409.5,301C 411.362,304.149 412.029,307.649 411.5,311.5C 410.834,308.642 410.167,305.642 409.5,302.5C 408.818,301.757 408.151,301.091 407.5,300.5C 406.5,300.5 405.5,300.5 404.5,300.5 Z"/></g>
<g><path style="opacity:1" fill="#2f3032" d="M 422.5,301.5 C 424.681,301.284 426.347,302.117 427.5,304C 425.421,304.808 423.421,304.641 421.5,303.5C 421.863,302.817 422.196,302.15 422.5,301.5 Z"/></g>
<g><path style="opacity:1" fill="#27282b" d="M 449.5,302.5 C 455.245,301.825 456.911,304.159 454.5,309.5C 452.647,310.76 450.814,310.76 449,309.5C 448.297,307.071 448.463,304.738 449.5,302.5 Z"/></g>
<g><path style="opacity:1" fill="#333437" d="M 465.5,301.5 C 467.346,301.222 468.68,301.889 469.5,303.5C 467.5,304.833 465.5,304.833 463.5,303.5C 464.243,302.818 464.909,302.151 465.5,301.5 Z"/></g>
<g><path style="opacity:1" fill="#292a2d" d="M 477.5,302.5 C 484.004,302.138 485.671,304.638 482.5,310C 476.788,310.433 475.122,307.933 477.5,302.5 Z"/></g>
<g><path style="opacity:1" fill="#e6e7e7" d="M 150.5,303.5 C 159.33,302.162 162.83,305.829 161,314.5C 157.171,320.703 152.838,321.036 148,315.5C 146.773,310.938 147.607,306.938 150.5,303.5 Z"/></g>
<g><path style="opacity:1" fill="#e4e4e4" d="M 180.5,303.5 C 189.502,302.994 192.668,306.994 190,315.5C 185.162,321.036 180.829,320.703 177,314.5C 175.663,309.872 176.83,306.205 180.5,303.5 Z"/></g>
<g><path style="opacity:1" fill="#e5e5e5" d="M 209.5,303.5 C 218.328,302.839 221.495,306.839 219,315.5C 214.344,320.977 210.01,320.644 206,314.5C 204.882,310.077 206.049,306.41 209.5,303.5 Z"/></g>
<g><path style="opacity:1" fill="#d8d8d8" d="M 249.5,302.5 C 252.061,302.447 254.061,303.447 255.5,305.5C 252.035,307.265 248.535,308.931 245,310.5C 244.533,306.785 246.033,304.119 249.5,302.5 Z"/></g>
<g><path style="opacity:1" fill="#202124" d="M 534.5,292.5 C 534.866,306.541 534.366,320.541 533,334.5C 529.644,345.548 524.478,355.548 517.5,364.5C 508.017,373.245 497.017,379.411 484.5,383C 447.862,384.128 411.195,384.962 374.5,385.5C 375.788,387.739 376.788,390.072 377.5,392.5C 376.833,392.167 376.167,391.833 375.5,391.5C 375.25,389.326 374.25,387.659 372.5,386.5C 372.5,386.167 372.5,385.833 372.5,385.5C 365.018,384.508 357.352,384.175 349.5,384.5C 309.33,384.168 269.33,384.501 229.5,385.5C 228.974,387.23 227.974,388.564 226.5,389.5C 226.751,387.83 227.418,386.33 228.5,385C 209.836,384.5 191.17,384.333 172.5,384.5C 172.5,386.167 172.5,387.833 172.5,389.5C 172.167,389.5 171.833,389.5 171.5,389.5C 171.5,388.833 171.5,388.167 171.5,387.5C 171.5,386.5 171.5,385.5 171.5,384.5C 156.5,384.5 141.5,384.5 126.5,384.5C 109.726,382.945 95.3931,376.278 83.5,364.5C 70.6001,349.259 64.9334,331.592 66.5,311.5C 67.1667,311.833 67.8333,312.167 68.5,312.5C 74.892,340.39 92.2254,356.89 120.5,362C 240.5,362.667 360.5,362.667 480.5,362C 484.535,361.126 488.535,360.126 492.5,359C 521.528,346.465 535.528,324.298 534.5,292.5 Z"/></g>
<g><path style="opacity:1" fill="#ebebeb" d="M 517.5,364.5 C 511.097,386.299 501.763,406.632 489.5,425.5C 455.671,424.502 421.671,424.168 387.5,424.5C 386.923,412.827 383.59,402.16 377.5,392.5C 376.788,390.072 375.788,387.739 374.5,385.5C 411.195,384.962 447.862,384.128 484.5,383C 497.017,379.411 508.017,373.245 517.5,364.5 Z"/></g>
<g><path style="opacity:1" fill="#ececed" d="M 83.5,364.5 C 95.3931,376.278 109.726,382.945 126.5,384.5C 141.566,384.866 156.566,385.866 171.5,387.5C 171.5,388.167 171.5,388.833 171.5,389.5C 172.074,393.325 173.241,396.991 175,400.5C 174.663,396.672 173.83,393.005 172.5,389.5C 172.5,387.833 172.5,386.167 172.5,384.5C 191.17,384.333 209.836,384.5 228.5,385C 227.418,386.33 226.751,387.83 226.5,389.5C 219.346,399.96 215.346,411.627 214.5,424.5C 212.801,424.34 211.134,424.506 209.5,425C 211.382,425.198 213.048,425.698 214.5,426.5C 213.744,440.495 213.577,454.495 214,468.5C 216.87,487.573 225.037,503.906 238.5,517.5C 172.096,497.53 123.929,456.197 94,393.5C 89.8037,384.077 86.3037,374.41 83.5,364.5 Z"/></g>
<g><path style="opacity:1" fill="#bababb" d="M 126.5,384.5 C 141.5,384.5 156.5,384.5 171.5,384.5C 171.5,385.5 171.5,386.5 171.5,387.5C 156.566,385.866 141.566,384.866 126.5,384.5 Z"/></g>
<g><path style="opacity:1" fill="#627be6" d="M 229.5,385.5 C 243.833,385.5 258.167,385.5 272.5,385.5C 254.167,404.5 235.5,423.167 216.5,441.5C 215.555,436.595 215.221,431.595 215.5,426.5C 217.357,413.6 221.023,401.266 226.5,389.5C 227.974,388.564 228.974,387.23 229.5,385.5 Z"/></g>
<g><path style="opacity:1" fill="#7178e3" d="M 272.5,385.5 C 277.844,385.334 283.177,385.501 288.5,386C 265.582,409.419 242.249,432.253 218.5,454.5C 217.575,450.21 216.909,445.876 216.5,441.5C 235.5,423.167 254.167,404.5 272.5,385.5 Z"/></g>
<g><path style="opacity:1" fill="#7c73db" d="M 229.5,385.5 C 269.33,384.501 309.33,384.168 349.5,384.5C 349.5,384.833 349.5,385.167 349.5,385.5C 348.833,385.5 348.167,385.5 347.5,385.5C 339.5,385.5 331.5,385.5 323.5,385.5C 317.824,385.334 312.157,385.501 306.5,386C 278.581,413.417 251.248,441.251 224.5,469.5C 222.129,464.735 220.129,459.735 218.5,454.5C 242.249,432.253 265.582,409.419 288.5,386C 283.177,385.501 277.844,385.334 272.5,385.5C 258.167,385.5 243.833,385.5 229.5,385.5 Z"/></g>
<g><path style="opacity:1" fill="#8a71da" d="M 323.5,385.5 C 292.784,417.217 261.45,448.217 229.5,478.5C 227.436,475.757 225.769,472.757 224.5,469.5C 251.248,441.251 278.581,413.417 306.5,386C 312.157,385.501 317.824,385.334 323.5,385.5 Z"/></g>
<g><path style="opacity:1" fill="#986dd5" d="M 323.5,385.5 C 331.5,385.5 339.5,385.5 347.5,385.5C 312.167,421.167 276.833,456.833 241.5,492.5C 236.406,488.742 232.406,484.075 229.5,478.5C 261.45,448.217 292.784,417.217 323.5,385.5 Z"/></g>
<g><path style="opacity:1" fill="#a369ca" d="M 347.5,385.5 C 348.167,385.5 348.833,385.5 349.5,385.5C 350.167,385.5 350.833,385.5 351.5,385.5C 315.5,421.833 279.5,458.167 243.5,494.5C 242.5,494.167 241.833,493.5 241.5,492.5C 276.833,456.833 312.167,421.167 347.5,385.5 Z"/></g>
<g><path style="opacity:1" fill="#a866bf" d="M 351.5,385.5 C 353.5,385.5 355.5,385.5 357.5,385.5C 320.784,423.216 283.451,460.216 245.5,496.5C 244.5,496.167 243.833,495.5 243.5,494.5C 279.5,458.167 315.5,421.833 351.5,385.5 Z"/></g>
<g><path style="opacity:1" fill="#af61ab" d="M 349.5,385.5 C 349.5,385.167 349.5,384.833 349.5,384.5C 357.352,384.175 365.018,384.508 372.5,385.5C 370.801,385.34 369.134,385.506 367.5,386C 328.965,424.701 290.299,463.201 251.5,501.5C 249.77,500.974 248.436,499.974 247.5,498.5C 248.552,498.649 249.552,498.483 250.5,498C 287.833,460.667 325.167,423.333 362.5,386C 360.866,385.506 359.199,385.34 357.5,385.5C 355.5,385.5 353.5,385.5 351.5,385.5C 350.833,385.5 350.167,385.5 349.5,385.5 Z"/></g>
<g><path style="opacity:1" fill="#b65ea1" d="M 372.5,385.5 C 372.5,385.833 372.5,386.167 372.5,386.5C 372.631,387.239 372.464,387.906 372,388.5C 333.299,427.035 294.799,465.701 256.5,504.5C 254.566,503.89 252.899,502.89 251.5,501.5C 290.299,463.201 328.965,424.701 367.5,386C 369.134,385.506 370.801,385.34 372.5,385.5 Z"/></g>
<g><path style="opacity:1" fill="#bc5b94" d="M 372.5,386.5 C 374.25,387.659 375.25,389.326 375.5,391.5C 337.167,430.167 298.833,468.833 260.5,507.5C 258.77,506.974 257.436,505.974 256.5,504.5C 294.799,465.701 333.299,427.035 372,388.5C 372.464,387.906 372.631,387.239 372.5,386.5 Z"/></g>
<g><path style="opacity:1" fill="#c25889" d="M 375.5,391.5 C 376.167,391.833 376.833,392.167 377.5,392.5C 377.5,393.5 377.5,394.5 377.5,395.5C 339.117,432.883 301.45,470.883 264.5,509.5C 263.167,508.833 261.833,508.167 260.5,507.5C 298.833,468.833 337.167,430.167 375.5,391.5 Z"/></g>
<g><path style="opacity:1" fill="#5f5f62" d="M 171.5,389.5 C 171.833,389.5 172.167,389.5 172.5,389.5C 173.83,393.005 174.663,396.672 175,400.5C 173.241,396.991 172.074,393.325 171.5,389.5 Z"/></g>
<g><path style="opacity:1" fill="#c55681" d="M 377.5,395.5 C 378.551,396.222 379.218,397.222 379.5,398.5C 341.216,435.117 303.549,472.45 266.5,510.5C 265.833,510.167 265.167,509.833 264.5,509.5C 301.45,470.883 339.117,432.883 377.5,395.5 Z"/></g>
<g><path style="opacity:1" fill="#c95479" d="M 379.5,398.5 C 379.833,399.167 380.167,399.833 380.5,400.5C 343.167,437.167 306.167,474.167 269.5,511.5C 268.391,511.443 267.391,511.11 266.5,510.5C 303.549,472.45 341.216,435.117 379.5,398.5 Z"/></g>
<g><path style="opacity:1" fill="#434653" d="M 226.5,389.5 C 221.023,401.266 217.357,413.6 215.5,426.5C 215.167,426.5 214.833,426.5 214.5,426.5C 213.048,425.698 211.382,425.198 209.5,425C 211.134,424.506 212.801,424.34 214.5,424.5C 215.346,411.627 219.346,399.96 226.5,389.5 Z"/></g>
<g><path style="opacity:1" fill="#4a4b4e" d="M 179.5,407.5 C 177.915,406.998 177.415,405.998 178,404.5C 179.039,405.244 179.539,406.244 179.5,407.5 Z"/></g>
<g><path style="opacity:1" fill="#d24f65" d="M 382.5,406.5 C 382.833,407.833 383.167,409.167 383.5,410.5C 348.701,444.799 314.035,479.299 279.5,514C 280.056,514.383 280.389,514.883 280.5,515.5C 278.421,515.029 276.421,514.363 274.5,513.5C 309.415,477.084 344.915,441.084 381,405.5C 381.383,406.056 381.883,406.389 382.5,406.5 Z"/></g>
<g><path style="opacity:1" fill="#565659" d="M 179.5,407.5 C 182.833,410.167 185.833,413.167 188.5,416.5C 184.5,414.5 181.5,411.5 179.5,407.5 Z"/></g>
<g><path style="opacity:1" fill="#d94b56" d="M 383.5,410.5 C 384.461,412.265 384.795,414.265 384.5,416.5C 351.368,449.132 318.368,481.965 285.5,515C 286.056,515.383 286.389,515.883 286.5,516.5C 284.435,516.483 282.435,516.15 280.5,515.5C 280.389,514.883 280.056,514.383 279.5,514C 314.035,479.299 348.701,444.799 383.5,410.5 Z"/></g>
<g><path style="opacity:1" fill="#48494b" d="M 188.5,416.5 C 190.027,416.427 191.027,417.094 191.5,418.5C 189.973,418.573 188.973,417.906 188.5,416.5 Z"/></g>
<g><path style="opacity:1" fill="#5a5b5d" d="M 191.5,418.5 C 196.634,420.823 201.967,422.656 207.5,424C 201.266,424.645 195.933,422.811 191.5,418.5 Z"/></g>
<g><path style="opacity:1" fill="#df4849" d="M 384.5,416.5 C 385.461,418.265 385.795,420.265 385.5,422.5C 353.45,453.55 322.117,485.216 291.5,517.5C 289.708,517.634 288.042,517.301 286.5,516.5C 286.389,515.883 286.056,515.383 285.5,515C 318.368,481.965 351.368,449.132 384.5,416.5 Z"/></g>
<g><path style="opacity:1" fill="#4f4b4e" d="M 377.5,392.5 C 383.59,402.16 386.923,412.827 387.5,424.5C 421.671,424.168 455.671,424.502 489.5,425.5C 489.167,425.5 488.833,425.5 488.5,425.5C 454.833,425.5 421.167,425.5 387.5,425.5C 387.489,437.69 386.823,449.69 385.5,461.5C 385.5,457.5 385.5,453.5 385.5,449.5C 386.118,442.183 386.451,434.849 386.5,427.5C 386.634,425.708 386.301,424.042 385.5,422.5C 385.795,420.265 385.461,418.265 384.5,416.5C 384.795,414.265 384.461,412.265 383.5,410.5C 383.167,409.167 382.833,407.833 382.5,406.5C 382.029,404.421 381.363,402.421 380.5,400.5C 380.167,399.833 379.833,399.167 379.5,398.5C 379.218,397.222 378.551,396.222 377.5,395.5C 377.5,394.5 377.5,393.5 377.5,392.5 Z"/></g>
<g><path style="opacity:1" fill="#e5453d" d="M 385.5,422.5 C 386.301,424.042 386.634,425.708 386.5,427.5C 356.167,457.167 326.167,487.167 296.5,517.5C 294.833,517.5 293.167,517.5 291.5,517.5C 322.117,485.216 353.45,453.55 385.5,422.5 Z"/></g>
<g><path style="opacity:1" fill="#ededed" d="M 488.5,425.5 C 457.033,472.272 414.033,503.272 359.5,518.5C 375.467,502.895 384.134,483.895 385.5,461.5C 386.823,449.69 387.489,437.69 387.5,425.5C 421.167,425.5 454.833,425.5 488.5,425.5 Z"/></g>
<g><path style="opacity:1" fill="#e84235" d="M 386.5,427.5 C 386.451,434.849 386.118,442.183 385.5,449.5C 372.667,493.98 343.001,516.646 296.5,517.5C 326.167,487.167 356.167,457.167 386.5,427.5 Z"/></g>
<g><path style="opacity:1" fill="#222226" d="M 214.5,426.5 C 214.833,426.5 215.167,426.5 215.5,426.5C 215.221,431.595 215.555,436.595 216.5,441.5C 216.909,445.876 217.575,450.21 218.5,454.5C 220.129,459.735 222.129,464.735 224.5,469.5C 225.769,472.757 227.436,475.757 229.5,478.5C 232.406,484.075 236.406,488.742 241.5,492.5C 241.833,493.5 242.5,494.167 243.5,494.5C 243.833,495.5 244.5,496.167 245.5,496.5C 245.833,497.5 246.5,498.167 247.5,498.5C 248.436,499.974 249.77,500.974 251.5,501.5C 252.899,502.89 254.566,503.89 256.5,504.5C 257.436,505.974 258.77,506.974 260.5,507.5C 261.833,508.167 263.167,508.833 264.5,509.5C 265.167,509.833 265.833,510.167 266.5,510.5C 267.391,511.11 268.391,511.443 269.5,511.5C 270.93,512.537 272.597,513.204 274.5,513.5C 276.421,514.363 278.421,515.029 280.5,515.5C 282.435,516.15 284.435,516.483 286.5,516.5C 288.042,517.301 289.708,517.634 291.5,517.5C 293.167,517.5 294.833,517.5 296.5,517.5C 343.001,516.646 372.667,493.98 385.5,449.5C 385.5,453.5 385.5,457.5 385.5,461.5C 384.134,483.895 375.467,502.895 359.5,518.5C 340.2,524.554 320.366,527.22 300,526.5C 282.307,526.579 264.807,524.746 247.5,521C 244.31,520.14 241.31,518.974 238.5,517.5C 225.037,503.906 216.87,487.573 214,468.5C 213.577,454.495 213.744,440.495 214.5,426.5 Z"/></g>
<g><path style="opacity:1" fill="#ad64b5" d="M 357.5,385.5 C 359.199,385.34 360.866,385.506 362.5,386C 325.167,423.333 287.833,460.667 250.5,498C 249.552,498.483 248.552,498.649 247.5,498.5C 246.5,498.167 245.833,497.5 245.5,496.5C 283.451,460.216 320.784,423.216 357.5,385.5 Z"/></g>
<g><path style="opacity:1" fill="#cd526f" d="M 380.5,400.5 C 381.363,402.421 382.029,404.421 382.5,406.5C 381.883,406.389 381.383,406.056 381,405.5C 344.915,441.084 309.415,477.084 274.5,513.5C 272.597,513.204 270.93,512.537 269.5,511.5C 306.167,474.167 343.167,437.167 380.5,400.5 Z"/></g>
</svg>
