<svg width="41" height="20" viewBox="0 0 41 20" fill="none" xmlns="http://www.w3.org/2000/svg">
<path d="M9.53789 10.0521L16.0479 6.2921C17.5779 5.4121 18.1079 3.4521 17.2179 1.9121C16.3379 0.382095 14.3779 -0.147905 12.8379 0.742095L1.58789 7.24209L9.53789 10.0521Z" fill="#E74436"/>
<path d="M14.4478 19.7121C15.5578 19.7121 16.6278 19.1421 17.2278 18.1121C18.1078 16.5821 17.5878 14.6221 16.0578 13.7321L4.80784 7.23209C3.27784 6.34209 1.31784 6.87209 0.427836 8.40209C-0.452164 9.93209 0.0678383 11.8921 1.59784 12.7821L12.8478 19.2821C13.3478 19.5721 13.8978 19.7121 14.4478 19.7121Z" fill="#4C78BC"/>
<path d="M25.6378 19.7121C26.1778 19.7121 26.7278 19.5721 27.2378 19.2821L38.4878 12.7821L30.6478 9.91211L24.0378 13.7321C22.5078 14.6121 21.9778 16.5721 22.8678 18.1121C23.4578 19.1421 24.5278 19.7121 25.6378 19.7121Z" fill="#F6B819"/>
<path d="M36.8883 13.212C37.9983 13.212 39.0683 12.642 39.6683 11.612C40.5483 10.082 40.0283 8.12204 38.4983 7.23204L27.2483 0.732036C25.7183 -0.147964 23.7583 0.372036 22.8683 1.90204C21.9883 3.43204 22.5083 5.39204 24.0383 6.28204L35.2883 12.782C35.7883 13.082 36.3383 13.212 36.8883 13.212Z" fill="#0B9D58"/>
</svg>
